<svg width="16" height="28" viewBox="0 0 16 28" fill="none" xmlns="http://www.w3.org/2000/svg">
<path d="M0.541937 2.98739L9.92896 12.2334L11.8011 13.9819L9.94672 15.7269L0.541936 24.9938C0.37239 25.1551 0.237154 25.3481 0.14412 25.5614C0.0510854 25.7747 0.00211582 26.0042 6.69759e-05 26.2363C-0.00198049 26.4685 0.0429345 26.6987 0.13219 26.9136C0.221447 27.1285 0.353257 27.3237 0.519931 27.4879C0.686606 27.652 0.884805 27.7819 1.10297 27.8698C1.32113 27.9577 1.55488 28.002 1.79058 27.9999C2.02629 27.9979 2.25922 27.9497 2.4758 27.858C2.69237 27.7664 2.88825 27.6332 3.05201 27.4662L15.4781 15.2268C15.6435 15.0644 15.7747 14.8715 15.8643 14.659C15.9538 14.4466 16 14.2189 16 13.9889V13.9819C15.9996 13.7261 15.9422 13.4736 15.8318 13.2422C15.7213 13.0107 15.5606 12.806 15.3609 12.6425L3.05201 0.511531C2.88696 0.349193 2.69107 0.220466 2.47551 0.132698C2.25996 0.0449293 2.02896 -0.000161476 1.79572 4.34493e-07C1.56247 0.000163219 1.33154 0.0455747 1.11611 0.133643C0.900684 0.221712 0.704976 0.350713 0.540162 0.51328C0.375349 0.675847 0.244656 0.868796 0.155548 1.08111C0.0664413 1.29343 0.0206622 1.52095 0.0208273 1.7507C0.0209923 1.98044 0.0670989 2.2079 0.156511 2.42009C0.245922 2.63228 0.37689 2.82505 0.541937 2.98739Z" fill="currentColor"/>
</svg>
